<svg width="51.088104" height="47.770309" viewBox="0 0 51.0881 47.7703" fill="none" xmlns="http://www.w3.org/2000/svg" xmlns:xlink="http://www.w3.org/1999/xlink">
	<desc>
			Created with Pixso.
	</desc>
	<defs>
		<linearGradient x1="0.612053" y1="47.770309" x2="47.770287" y2="-0.000015" id="paint_linear_179_2123_0" gradientUnits="userSpaceOnUse">
			<stop stop-color="#5B52A3"/>
			<stop offset="1.000000" stop-color="#40B8EA"/>
		</linearGradient>
		<linearGradient x1="13.692993" y1="22.915752" x2="49.952122" y2="22.915752" id="paint_linear_179_2125_0" gradientUnits="userSpaceOnUse">
			<stop stop-color="#54E1AB"/>
			<stop offset="1.000000" stop-color="#7EEEC1"/>
		</linearGradient>
	</defs>
	<path id="Vector" d="M23.88 0C37.07 0 47.77 10.69 47.77 23.88C47.77 37.07 37.07 47.77 23.88 47.77C10.69 47.77 0 37.07 0 23.88C0 10.69 10.69 0 23.88 0ZM23.88 9.3C31.94 9.3 38.46 15.83 38.46 23.88C38.46 31.94 31.94 38.46 23.88 38.46C15.83 38.46 9.3 31.94 9.3 23.88C9.3 15.83 15.83 9.3 23.88 9.3Z" fill="url(#paint_linear_179_2123_0)" fill-opacity="1.000000" fill-rule="evenodd"/>
	<g opacity="0.200000">
		<path id="Vector" d="M40.47 41.07C38.47 42.99 36.14 44.58 33.57 45.72L26.68 38.19C29.58 37.63 32.17 36.21 34.18 34.2L40.47 41.07L40.47 41.07Z" fill="#1F2428" fill-opacity="1.000000" fill-rule="evenodd"/>
	</g>
	<path id="Vector" d="M51.08 0.25L42.35 8.74C40.27 6.2 37.68 4.1 34.73 2.6L37.16 0.25L51.08 0.25L51.08 0.25ZM35.64 15.26L27.36 23.31L49.88 47.17L36.59 47.17L13.69 22.91L27.36 9.71C30.73 10.54 33.65 12.54 35.64 15.26L35.64 15.26Z" fill="url(#paint_linear_179_2125_0)" fill-opacity="1.000000" fill-rule="evenodd"/>
	<g opacity="0.200000">
		<path id="Vector" d="M26.6 10.44C29.97 11.28 32.88 13.29 34.87 16.01L35.64 15.26C33.65 12.54 30.74 10.54 27.36 9.71L26.6 10.44Z" fill="#1F2428" fill-opacity="1.000000" fill-rule="evenodd"/>
	</g>
</svg>
